<?xml version="1.0" encoding="utf-8"?>
<?xml-stylesheet type="text/xsl" href="rss1.xsl"?>
<rss version="2.0" xmlns:atom="http://www.w3.org/2005/Atom" xmlns:content="http://purl.org/rss/1.0/modules/content/" xmlns:dc="http://purl.org/dc/elements/1.1/" xmlns:media="http://search.yahoo.com/mrss/">
<channel>
 <title>Getty</title>
 <link>http://www.gettyimg.com/</link>
 <atom:link href="http://www.gettyimg.com/" rel="self" type="application/rss+xml" />

 
                <item>
                <title><![CDATA[【UPSCALED】Natasha St-Pier - Tu trouveras [1080p] (2002)]]></title>
                <link><![CDATA[https://sharemania.us/threads/natasha-st-pier-tu-trouveras-1080p-2002.228463/]]></link>
                <description><![CDATA[<article>
<blockquote class="messageText SelectQuoteContainer ugc baseHtml">
<img src="https://i.imgur.com/XB0p9lF.jpg" class="bbCodeImage LbImage" alt="[​IMG]" data-url="https://i.imgur.com/XB0p9lF.jpg" style=""> <br>
<div class="bbCodeBlock bbCodeVfcHH HiddenContent">
<div class="attribution type">Hidden Content:</div>
<blockquote>You must either reply or click 'Like' to see the hidden information contained here.</blockquote>
</div>
<div class="messageTextEndMarker">&nbsp;</div>
</blockquote>
</article>]]></description>
                <author><![CDATA[Giulya]]></author>
                </item>

                
                <item>
                <title><![CDATA[【UPSCALED】Natasha St-Pier - Je N'ai Que Mon Ame [1080p] (2001)]]></title>
                <link><![CDATA[https://sharemania.us/threads/natasha-st-pier-je-nai-que-mon-ame-1080p-2001.228462/]]></link>
                <description><![CDATA[<article>
<blockquote class="messageText SelectQuoteContainer ugc baseHtml">
<img src="https://i.imgur.com/AL8od0H.jpg" class="bbCodeImage LbImage" alt="[​IMG]" data-url="https://i.imgur.com/AL8od0H.jpg" style=""> <br>
<div class="bbCodeBlock bbCodeVfcHH HiddenContent">
<div class="attribution type">Hidden Content:</div>
<blockquote>You must either reply or click 'Like' to see the hidden information contained here.</blockquote>
</div>
<div class="messageTextEndMarker">&nbsp;</div>
</blockquote>
</article>]]></description>
                <author><![CDATA[Giulya]]></author>
                </item>

                
                <item>
                <title><![CDATA[【UPSCALED】Nelly Furtado - Spirit Indestructible (4K-AI-REMASTERED-H.265)]]></title>
                <link><![CDATA[https://sharemania.us/threads/nelly-furtado-spirit-indestructible-4k-ai-remastered-h-265.228459/]]></link>
                <description><![CDATA[<article>
<blockquote class="messageText SelectQuoteContainer ugc baseHtml">
<img src="https://i.imgur.com/R9SHw6a.png" class="bbCodeImage LbImage" alt="[​IMG]" data-url="https://i.imgur.com/R9SHw6a.png" style=""><br>
<img src="https://i.imgur.com/CtIV5VB.jpg" class="bbCodeImage LbImage" alt="[​IMG]" data-url="https://i.imgur.com/CtIV5VB.jpg" style=""><br>
<img src="https://i.imgur.com/dBnSKfx.png" class="bbCodeImage LbImage" alt="[​IMG]" data-url="https://i.imgur.com/dBnSKfx.png" style=""><br>
<br>
<div class="bbCodeBlock bbCodeCode">
<div class="type">Code:</div>
<pre>General
Format                                   : MPEG-4
Format profile                           : Base Media / Version 2
Codec ID                                 : mp42 (mp42/iso2/mp41)
File size                                : 457 MiB
Duration                                 : 4 min 16 s
Overall bit rate                         : 14.9 Mb/s
Frame rate                               : 23.976 FPS

Video
ID                                       : 1
Format                                   : HEVC
Format/Info                              : High Efficiency Video Coding
Format profile                           : Main@L5@Main
Codec ID                                 : hvc1
Codec ID/Info                            : High Efficiency Video Coding
Duration                                 : 4 min 16 s
Bit rate                                 : 14.5 Mb/s
Width                                    : 3 840 pixels
Height                                   : 1 632 pixels
Display aspect ratio                     : 2.35:1
Frame rate mode                          : Variable
Frame rate                               : 23.976 (24000/1001) FPS
Minimum frame rate                       : 23.974 FPS
Maximum frame rate                       : 23.981 FPS
Color space                              : YUV
Chroma subsampling                       : 4:2:0 (Type 0)
Bit depth                                : 8 bits
Bits/(Pixel*Frame)                       : 0.097
Stream size                              : 445 MiB (97%)
Color range                              : Limited
Color primaries                          : BT.709
Transfer characteristics                 : BT.709
Matrix coefficients                      : BT.709
mdhd_Duration                            : 256923
Codec configuration box                  : hvcC

Audio
ID                                       : 2
Format                                   : AAC LC
Format/Info                              : Advanced Audio Codec Low Complexity
Codec ID                                 : mp4a-40-2
Duration                                 : 4 min 16 s
Source duration                          : 4 min 16 s
Bit rate mode                            : Constant
Bit rate                                 : 384 kb/s
Channel(s)                               : 2 channels
Channel layout                           : L R
Sampling rate                            : 48.0 kHz
Frame rate                               : 46.875 FPS (1024 SPF)
Compression mode                         : Lossy
Stream size                              : 11.6 MiB (3%)
Source stream size                       : 11.6 MiB (3%)
Title                                    : Stereo / Stereo</pre>
</div><div style="text-align: center">
<div class="bbCodeBlock bbCodeVfcHH HiddenContent">
<div class="attribution type">Hidden Content:</div>
<blockquote>You must reply before you can see the hidden data contained here.</blockquote>
</div></div>
<div class="messageTextEndMarker">&nbsp;</div>
</blockquote>
</article>]]></description>
                <author><![CDATA[Librious]]></author>
                </item>

                
                <item>
                <title><![CDATA[【Requests】[REQ AUD] - R3HAB &amp; Bassjackers - Raise Those Hands [FLAC Lossless]]]></title>
                <link><![CDATA[https://sharemania.us/threads/r3hab-bassjackers-raise-those-hands-flac-lossless.228464/]]></link>
                <description><![CDATA[<article>
<blockquote class="messageText SelectQuoteContainer ugc baseHtml">
Mil gracias please videos de Ava max, Katy perry, Rihanna.
<div class="messageTextEndMarker">&nbsp;</div>
</blockquote>
</article>]]></description>
                <author><![CDATA[JoquiJorlas]]></author>
                </item>

                
                <item>
                <title><![CDATA[【UPSCALED】Natasha St-Pier - Nos rendez-vous [1080p] (2002)]]></title>
                <link><![CDATA[https://sharemania.us/threads/natasha-st-pier-nos-rendez-vous-1080p-2002.228461/]]></link>
                <description><![CDATA[<article>
<blockquote class="messageText SelectQuoteContainer ugc baseHtml">
Thanks<img src="styles/default/xenforo/smilies/victory-48.png" class="mceSmilie" alt=":victory:" title="Victory    :victory:">nice work
<div class="messageTextEndMarker">&nbsp;</div>
</blockquote>
</article>]]></description>
                <author><![CDATA[Giulya]]></author>
                </item>

                
                <item>
                <title><![CDATA[【Unreleased/Unofficial (lossy)】MP3 - Beyoncé - I Am... Sasha Fierce (15th Anniversary Special Edition) (2023) - FAN MADE + BOOKLET]]></title>
                <link><![CDATA[https://sharemania.us/threads/beyonc%C3%A9-i-am-sasha-fierce-15th-anniversary-special-edition-2023-fan-made-booklet.228460/]]></link>
                <description><![CDATA[<article>
<blockquote class="messageText SelectQuoteContainer ugc baseHtml">
Hello guys, I'm looking for that and I couldn't find it anyway, I just found this link but it seems to be from another region, can anyone extract it, thanks in advance!<br>
<br>
<a href="https://www.deezer.com/es/track/68950069" target="_blank" class="externalLink" rel="nofollow">https://www.deezer.com/es/track/68950069</a>
<div class="messageTextEndMarker">&nbsp;</div>
</blockquote>
</article>]]></description>
                <author><![CDATA[Robert Forever]]></author>
                </item>

                </channel></rss>